<mxfile host="app.diagrams.net" modified="2024-02-12T06:11:10.900Z" agent="Mozilla/5.0 (Macintosh; Intel Mac OS X 10_15_7) AppleWebKit/537.36 (KHTML, like Gecko) Chrome/121.0.0.0 Safari/537.36" version="23.1.2" etag="RcZEDo08r_vyytaSPJl3" type="github">
  <diagram name="Page-1" id="E-A-DoMV2FEaA_YIqluD">
    <mxGraphModel>
      <root>
        <mxCell id="0" />
        <mxCell id="1" parent="0" />
      </root>
    </mxGraphModel>
  </diagram>
</mxfile>
